Coordinates
version=1
nRows=14
nColumns=24
inDegrees=yes

Units are S.I. units (second, meters, Newtons, ...)
Angles are in degrees.

endheader
time	pelvis_tilt	pelvis_list	pelvis_rotation	pelvis_tx	pelvis_ty	pelvis_tz	hip_flexion_r	hip_adduction_r	hip_rotation_r	knee_angle_r	ankle_angle_r	subtalar_angle_r	mtp_angle_r	hip_flexion_l	hip_adduction_l	hip_rotation_l	knee_angle_l	ankle_angle_l	subtalar_angle_l	mtp_angle_l	lumbar_extension	lumbar_bending	lumbar_rotation
      4.71000000	     61.93278385	      4.46715935	      7.61572032	      0.77978039	      1.08476547	     -0.27251704	     -5.24729666	    -12.87333711	     -4.59267637	    -52.05040262	    -15.85249816	     -0.62918731	     40.44878396	      6.97413014	    -18.43850482	      2.96897769	    -64.02866123	     -6.01106238	     13.65915762	    -41.90497815	      0.00000000	      0.00000000	      0.00000000
      4.72000000	     61.95041158	      4.47484192	      7.62361476	      0.77970098	      1.08472311	     -0.27260334	     -5.25829537	    -12.86858371	     -4.62697318	    -52.02541176	    -15.85092207	     -0.59973370	     40.45579626	      6.97303741	    -18.40050685	      2.76320037	    -63.62828533	     -5.96741499	     13.85340034	    -41.81417545	      0.00000000	      0.00000000	      0.00000000
      4.73000000	     61.96348512	      4.48293345	      7.63379437	      0.77964962	      1.08469062	     -0.27270767	     -5.27652739	    -12.86366067	     -4.66148197	    -52.00029666	    -15.86859065	     -0.57252356	     40.47392560	      6.97212879	    -18.36099065	      2.56027729	    -63.22704161	     -5.92373128	     14.01436051	    -41.69016886	      0.00000000	      0.00000000	      0.00000000
      4.74000000	     61.97303566	      4.49318472	      7.64529184	      0.77962688	      1.08469168	     -0.27283093	     -5.30015572	    -12.85847795	     -4.69730697	    -51.97642028	    -15.90079800	     -0.54706876	     40.50649269	      6.97324818	    -18.31969867	      2.36331614	    -62.82608875	     -5.88137141	     14.13724460	    -41.53422323	      0.00000000	      0.00000000	      0.00000000
      4.75000000	     61.97946488	      4.50530407	      7.65984317	      0.77963441	      1.08471829	     -0.27296318	     -5.32516067	    -12.85154059	     -4.73469044	    -51.95568820	    -15.93927196	     -0.52260112	     40.55785222	      6.97696196	    -18.27511219	      2.17371782	    -62.42745310	     -5.84164467	     14.21758753	    -41.35053836	      0.00000000	      0.00000000	      0.00000000
      4.76000000	     61.98173820	      4.51692272	      7.68069962	      0.77967383	      1.08474140	     -0.27309070	     -5.34811916	    -12.84090643	     -4.77185072	    -51.94136743	    -15.97500718	     -0.49824871	     40.63171312	      6.98304032	    -18.22499803	      1.99215856	    -62.03327995	     -5.80560977	     14.25233368	    -41.14586692	      0.00000000	      0.00000000	      0.00000000
      4.77000000	     61.97746320	      4.52554116	      7.70863630	      0.77974420	      1.08474544	     -0.27320924	     -5.36873239	    -12.82571828	     -4.80494740	    -51.93783803	    -16.00175467	     -0.47330047	     40.72963537	      6.99224824	    -18.16837014	      1.82061916	    -61.64505030	     -5.77408197	     14.24104691	    -40.92886520	      0.00000000	      0.00000000	      0.00000000
      4.78000000	     61.96407520	      4.53071546	      7.73996398	      0.77983132	      1.08474407	     -0.27332525	     -5.38879217	    -12.80681864	     -4.82978293	    -51.94829238	    -16.01840156	     -0.44750324	     40.85000192	      7.00609674	    -18.10679026	      1.66280913	    -61.26394414	     -5.74741692	     14.18656280	    -40.70914624	      0.00000000	      0.00000000	      0.00000000
      4.79000000	     61.94158892	      4.53426953	      7.76916356	      0.77992411	      1.08476699	     -0.27344562	     -5.40799527	    -12.78594230	     -4.84422488	    -51.97186012	    -16.02894313	     -0.42130864	     40.98768382	      7.02478689	    -18.04333699	      1.52178223	    -60.89138242	     -5.72506009	     14.09478478	    -40.49601884	      0.00000000	      0.00000000	      0.00000000
      4.80000000	     61.91376777	      4.53795024	      7.79313319	      0.78003013	      1.08482785	     -0.27356535	     -5.42260969	    -12.76435398	     -4.84942036	    -52.00402322	    -16.04020527	     -0.39591113	     41.13448336	      7.04625317	    -17.97994868	      1.39677150	    -60.52845355	     -5.70549479	     13.97403256	    -40.29703324	      0.00000000	      0.00000000	      0.00000000
      4.81000000	     61.88545353	      4.54105610	      7.81257037	      0.78015216	      1.08489924	     -0.27366743	     -5.42936130	    -12.74239006	     -4.84894933	    -52.04070059	    -16.05851293	     -0.37296603	     41.28029381	      7.06709205	    -17.91609443	      1.28290180	    -60.17501319	     -5.68718999	     13.83455130	    -40.11663304	      0.00000000	      0.00000000	      0.00000000
      4.82000000	     61.85982371	      4.54142249	      7.82948449	      0.78027602	      1.08493883	     -0.27374495	     -5.42884617	    -12.72015355	     -4.84701443	    -52.08114893	    -16.08660812	     -0.35398239	     41.41477496	      7.08379966	    -17.85055860	      1.17503387	    -59.83012793	     -5.67019194	     13.68825569	    -39.95526653	      0.00000000	      0.00000000	      0.00000000
      4.83000000	     61.83817906	      4.53821117	      7.84412687	      0.78038353	      1.08493992	     -0.27380827	     -5.42479969	    -12.69839524	     -4.84700687	    -52.12690971	    -16.12176634	     -0.33951792	     41.52924292	      7.09300867	    -17.78406852	      1.07224645	    -59.49381447	     -5.65691213	     13.54809423	    -39.80918395	      0.00000000	      0.00000000	      0.00000000
      4.84000000	     61.82125603	      4.53259778	      7.85444089	      0.78046670	      1.08493540	     -0.27386524	     -5.42168499	    -12.67847459	     -4.85083155	    -52.17883551	    -16.15565977	     -0.32841556	     41.61842742	      7.09175049	    -17.71944629	      0.97849917	    -59.16786140	     -5.65080623	     13.42638124	    -39.67096587	      0.00000000	      0.00000000	      0.00000000
